<svg width="26" height="20" viewBox="0 0 26 20" fill="none" xmlns="http://www.w3.org/2000/svg">
<path fill-rule="evenodd" clip-rule="evenodd" d="M10.3113 3.43818C10.314 1.86867 11.4675 0.5 13.0001 0.5C14.5313 0.5 15.6861 1.86721 15.6889 3.42797C15.6983 3.89105 15.6002 4.34983 15.4023 4.76985C15.2603 5.07129 15.0697 5.34687 14.8389 5.58665L15.8302 7.7208L17.5394 5.74332C17.65 5.6153 17.8179 5.55193 17.9856 5.57491C18.1532 5.5979 18.2979 5.70411 18.37 5.85719L19.2805 7.7899L20.5193 6.52345C20.3647 6.2442 20.2527 5.94315 20.1878 5.62977C20.0936 5.17491 20.1012 4.70553 20.2099 4.25384C20.5787 2.71649 22.0361 1.72062 23.5218 2.16723C24.9778 2.60492 25.7738 4.2298 25.4127 5.75075C25.3179 6.19614 25.1152 6.61187 24.8226 6.96347C24.5861 7.24769 24.2965 7.48321 23.9708 7.65839L21.5767 19.1024C21.5243 19.3532 21.2907 19.5237 21.0359 19.4973C21.0293 19.4967 21.0227 19.4958 21.0162 19.4949H4.91284C4.67616 19.4949 4.4719 19.329 4.42343 19.0973L2.02948 7.6536C1.70349 7.47862 1.41369 7.24313 1.17707 6.9588C0.884369 6.60707 0.681782 6.19106 0.587403 5.74541C0.227177 4.22771 1.01707 2.58712 2.47963 2.15161C3.9678 1.70849 5.42131 2.70693 5.79015 4.24318C5.90054 4.6964 5.90898 5.1677 5.81484 5.62449C5.74979 5.94007 5.63693 6.2432 5.48091 6.52418L6.87816 7.95583L7.92425 5.96474C7.99998 5.82058 8.14118 5.72234 8.30267 5.70143C8.46416 5.68052 8.62572 5.73956 8.73567 5.85967L10.2638 7.52894L11.1613 5.59681C10.9305 5.35704 10.7399 5.08145 10.5979 4.78001C10.4 4.36 10.3019 3.90125 10.3113 3.43818ZM9.80751 8.51142L8.47856 7.05975L7.61247 8.70823L9.03779 10.1686L9.80751 8.51142ZM20.6822 18.4949H5.31907L4.90015 16.4924H21.1011L20.6822 18.4949ZM21.3103 15.4924L23.0424 7.21261C23.0759 7.05231 23.1858 6.91859 23.3366 6.85466C23.6173 6.73565 23.863 6.55319 24.0539 6.3238C24.2448 6.09449 24.3753 5.82491 24.4356 5.53812L24.4385 5.52436L24.4386 5.5244C24.6996 4.43596 24.108 3.38765 23.2339 3.1249C22.3875 2.87045 21.4397 3.41371 21.1822 4.48745L21.1821 4.48791C21.1079 4.79634 21.1027 5.11656 21.167 5.42703C21.2313 5.73753 21.3637 6.03176 21.556 6.28954C21.7032 6.48692 21.6848 6.7621 21.5126 6.93812L17.1716 11.3759C17.0567 11.4933 16.8915 11.5468 16.7297 11.5191C16.5678 11.4913 16.4298 11.3858 16.3607 11.2369L13.778 5.67633C13.681 5.46758 13.7391 5.2196 13.9187 5.07562C14.167 4.87649 14.3646 4.62599 14.4977 4.34365C14.6307 4.06136 14.6959 3.75405 14.689 3.44467L14.6887 3.43353H14.6889C14.6889 2.31921 13.8827 1.5 13.0001 1.5C12.1187 1.5 11.3113 2.31779 11.3113 3.44369V3.45483L11.3112 3.45483C11.3043 3.76421 11.3695 4.07152 11.5025 4.35381C11.6355 4.63615 11.8332 4.88665 12.0815 5.08578C12.2611 5.22977 12.3192 5.47774 12.2222 5.68649L9.63951 11.247C9.57028 11.3961 9.43223 11.5016 9.27024 11.5293C9.10824 11.5569 8.94299 11.5032 8.82821 11.3856L4.48718 6.93771C4.3152 6.76149 4.29712 6.48629 4.44456 6.28908C4.63805 6.03029 4.77111 5.73465 4.83542 5.42263C4.89972 5.11063 4.89393 4.78888 4.8184 4.47919L4.81793 4.47729L4.81794 4.47729C4.5603 3.40273 3.61401 2.85722 2.76501 3.11003C1.89237 3.36987 1.29978 4.42765 1.56153 5.51932L1.56473 5.53361C1.62466 5.82034 1.75496 6.0899 1.94572 6.31913C2.13654 6.54842 2.38236 6.7307 2.66308 6.84936C2.81411 6.9132 2.92424 7.04703 2.95781 7.20753L4.69095 15.4924H21.3103ZM18.5344 8.55262L17.7931 6.97903L16.2922 8.7155L16.9628 10.1593L18.5344 8.55262Z" fill="white"/>
</svg>
