<svg width="20" height="26" viewBox="0 0 20 26" fill="none" xmlns="http://www.w3.org/2000/svg">
<path fill-rule="evenodd" clip-rule="evenodd" d="M9.5 1C9.5 0.723858 9.72386 0.5 10 0.5C10.1517 0.5 10.2877 0.567588 10.3794 0.674299L10.3901 0.685405C10.4102 0.706334 10.4396 0.73716 10.4778 0.777437C10.5542 0.857988 10.6655 0.976361 10.8063 1.12898L10.8063 1.12899C13.8977 4.48039 15.4618 8.78909 15.1548 13.1387C15.7569 12.3129 16.2957 11.4496 16.7669 10.5551C16.8537 10.3903 17.0249 10.2874 17.2112 10.2882C17.3974 10.2889 17.5679 10.3931 17.6534 10.5585C18.7201 12.6216 19.5 14.7997 19.5 16.7882C19.5 21.6417 15.2034 25.5 10 25.5C4.79743 25.5 0.5 21.6425 0.5 16.7882C0.5 13.5448 2.58286 11.7129 4.61927 9.92194C4.80276 9.76056 4.98587 9.59952 5.16705 9.4378C7.38739 7.45595 9.49934 5.26883 9.5 1.00199C9.5 1.00133 9.5 1.00066 9.5 1ZM5.46685 23.3141C3.07336 21.9411 1.5 19.516 1.5 16.7882C1.5 14.0159 3.23264 12.4841 5.31932 10.6394C5.48845 10.4899 5.65991 10.3383 5.83295 10.1838C7.90598 8.33348 10.0687 6.14743 10.4432 2.22416C13.4545 5.71874 14.7518 10.1986 13.9694 14.5801L13.9693 14.5804C13.9584 14.6416 13.9471 14.7034 13.9353 14.7657C13.8933 14.9879 14.0057 15.2106 14.2093 15.3089C14.413 15.4071 14.6572 15.3565 14.805 15.1854C15.7034 14.1451 16.499 13.0341 17.1825 11.8656C17.9863 13.5878 18.5 15.2826 18.5 16.7882C18.5 19.5158 16.9267 21.9413 14.5328 23.3143C15.1463 22.5004 15.5084 21.5095 15.5084 20.4299C15.5084 18.5199 14.2711 17.434 13.1459 16.4465C13.0417 16.355 12.9384 16.2644 12.8372 16.174C11.6144 15.0825 10.5 13.9212 10.5 11.6438C10.5 11.4404 10.3768 11.2573 10.1885 11.1806C10.0001 11.104 9.78409 11.1491 9.64209 11.2946L10 11.6438L9.64207 11.2946L9.64205 11.2947L9.642 11.2947L9.64188 11.2948L9.64154 11.2952L9.64048 11.2963L9.6368 11.3001L9.62339 11.3139L9.57331 11.3664C9.52998 11.412 9.46721 11.4788 9.38805 11.5648C7.80911 13.2771 6.92742 15.4315 6.88961 17.6507C6.7255 17.3921 6.57226 17.1278 6.43025 16.8584C6.34342 16.6936 6.17224 16.5908 5.98602 16.5915C5.7998 16.5922 5.62941 16.6964 5.54384 16.8618C4.94394 18.0214 4.49129 19.2711 4.49129 20.4299C4.49129 21.5094 4.85342 22.5003 5.46685 23.3141ZM8.0089 19.1607C8.0166 19.2023 8.02069 19.2256 8.02795 19.2645C8.06934 19.4866 7.9567 19.7088 7.75313 19.8068C7.54956 19.9047 7.30563 19.8539 7.15799 19.683C6.74376 19.2033 6.36797 18.6969 6.0335 18.1679C5.69454 18.9729 5.49129 19.7449 5.49129 20.4299C5.49129 22.6357 7.46594 24.5 10 24.5C12.534 24.5 14.5084 22.6357 14.5084 20.4299C14.5084 18.9909 13.6214 18.2052 12.4444 17.1626C12.3549 17.0834 12.2638 17.0027 12.1713 16.9201C11.0965 15.9607 9.94554 14.8113 9.60219 12.8617C8.19707 14.6949 7.61524 16.9529 8.0089 19.1607Z" fill="white"/>
</svg>
